<?xml version="1.0" encoding="UTF-8"?>
<svg id="Layer_2" data-name="Layer 2" xmlns="http://www.w3.org/2000/svg" viewBox="0 0 253.75 76.56">
  <defs>
    <style>
      .cls-1 {
        fill: #fff;
        stroke-width: 0px;
      }
    </style>
  </defs>
  <g id="Layer_1-2" data-name="Layer 1">
    <g>
      <g>
        <path class="cls-1" d="M82.94,47.18h0l-18.49,17.14-6.78,6.28h0c-.79.91-1.67,1.73-2.63,2.45-2.93,2.2-6.57,3.51-10.51,3.51-4.66,0-8.9-1.82-12.04-4.8-.55-.53-1.07-1.09-1.55-1.68,0,0,0-.01-.01-.01l-6.08-6.56-4.62-4.99-15.68-16.91L.06,36.77c-.08-.08-.08-.22,0-.3,1.54-1.63,3.38-2.97,5.43-3.95,2.4-1.15,5.08-1.79,7.91-1.79,4.5,0,8.61,1.61,11.81,4.3.95.8,1.82,1.69,2.6,2.67h.01c.25.26.47.55.64.86.25.48.39,1.02.39,1.6,0,1.9-1.54,3.44-3.43,3.44-.91,0-1.74-.35-2.35-.93-.29-.27-.53-.59-.71-.94-.01,0-.02-.03-.03-.04-2.13-2.56-5.34-4.18-8.93-4.18-.89,0-1.75.1-2.58.29-.17.04-.23.24-.12.36l13.68,14.76,2.88,3.11,8.28,8.94,2.37,2.56s.02.02.03.03c1.82,1.4,4.09,2.24,6.57,2.24,1.62,0,3.15-.36,4.53-1,.39-.18.76-.38,1.12-.6,0-.01.02-.02.04-.03l3-2.78,3.37-3.12,5.38-4.98,1.02-.95,15.13-14.01s.09-.08.14-.13l.06-.06c.73-.63,1.73-.96,2.81-.79,1.49.24,2.66,1.46,2.84,2.96.12,1.13-.29,2.16-1.01,2.87Z"/>
        <g>
          <g>
            <path class="cls-1" d="M76.36,5.78h.01s-21.15,19.6-21.15,19.6l-8.73,8.09-1.53,1.42-1.14,1.05-7.29,6.76c-.13.12-.34.04-.37-.13-.09-.67-.13-1.35-.13-2.04,0-4.08,1.57-7.79,4.14-10.57h0s1.75-1.63,1.75-1.63l5.01-4.64L71.42,1.01h0l.27-.25h.01c.59-.48,1.34-.76,2.15-.76,1.9,0,3.44,1.54,3.44,3.43,0,.92-.36,1.74-.93,2.35Z"/>
            <path class="cls-1" d="M87.04,28.84h0l-17.76,16.47-6.36,5.89-1.53,1.42h0c-.08.07-.16.14-.24.2-.04.03-.08.06-.13.09l-.02.02h0c-.12.09-.25.18-.38.28-.1.07-.21.15-.31.22-.28.19-.57.37-.86.54-.08.05-.16.09-.25.14-.08.04-.15.08-.23.12-.08.05-.17.09-.25.13-.19.1-.39.19-.58.28-.09.04-.18.08-.27.12-.09.04-.18.08-.27.12-.09.04-.18.07-.28.11-.11.04-.22.09-.33.13s-.22.08-.34.12c-.1.04-.21.07-.31.1-.13.04-.26.08-.39.12-.21.06-.43.12-.64.17-.02,0-.04,0-.05,0-.11.03-.23.05-.34.08-.12.03-.24.05-.36.07-.32.06-.65.11-.97.16-.07,0-.14.02-.21.02-.05.02-.1.03-.14.03-.08,0-.15.02-.23.02h-.04c-.11,0-.22.02-.33.02-.09,0-.19,0-.28.02-.07,0-.15,0-.22,0h-.05c-.16,0-.32,0-.49,0-.14,0-.27,0-.4,0-.06,0-.12,0-.18,0-.08,0-.16,0-.24,0s-.16,0-.23,0c-.12,0-.23-.02-.35-.03-.09,0-.19-.02-.28-.03-.04,0-.09,0-.13,0-.05,0-.1,0-.15-.02-.04,0-.07,0-.11,0-.04,0-.09,0-.13-.02-.11-.02-.22-.03-.33-.05l-.33-.06h-.02l-.33-.06c-.18-.04-.24-.25-.11-.38l.11-.11,5.31-4.92,2.47-2.28.6-.56.27-.25,1.11-1.03,3.87-3.58,4.93-4.57,15.19-14.07c.74-.76,1.82-1.18,3-1,1.5.23,2.68,1.45,2.87,2.95.17,1.14-.24,2.18-.96,2.89Z"/>
          </g>
          <path class="cls-1" d="M67.03,38.5c-.02-.18-.24-.26-.37-.13l-4.62,4.28-3.86,3.58h0c-.26.31-.55.6-.85.86-.17.15-.35.29-.53.42-.27.2-.56.39-.86.56-.77.45-1.62.78-2.52.96-.74.16-1.51.22-2.29.18-.98-.05-1.92-.27-2.79-.63-.67-.28-1.3-.63-1.88-1.06-2.1-1.56-3.48-4.03-3.55-6.8-.03-1.5.31-2.92.95-4.16.31-.6.68-1.16,1.12-1.67.45-.53.96-1,1.52-1.41,0,0,0,0,.02,0l8.42-7.8c.13-.12.07-.34-.1-.37-1.04-.22-2.11-.33-3.22-.33-1.98,0-3.87.37-5.61,1.04-1.47.57-2.84,1.35-4.05,2.32-.63.5-1.22,1.04-1.76,1.63-2.57,2.78-4.14,6.49-4.14,10.57,0,.83.07,1.65.19,2.45.99,6.24,5.68,11.24,11.76,12.69.24.06.49.11.74.16h.02l.33.06c.11.02.22.03.33.05.04,0,.08,0,.13.02.03,0,.07,0,.11,0,.05,0,.1,0,.15.02.04,0,.08,0,.13,0,.09,0,.19.02.28.03.11,0,.23.02.35.03.08,0,.16,0,.23,0,.08,0,.16,0,.24,0,.06,0,.12,0,.18,0,.13,0,.27,0,.4,0,.16,0,.33,0,.49,0h.05c.07,0,.15,0,.22,0,.09,0,.19,0,.28-.02.11,0,.22,0,.33-.02h.04c.08,0,.16,0,.23-.02.04,0,.09,0,.13,0,.07,0,.14-.02.21-.02.33-.04.65-.09.97-.16.12-.02.24-.05.36-.07.11-.02.23-.05.34-.08.02,0,.04,0,.05,0,.21-.05.43-.11.64-.17.13-.04.26-.08.39-.12.11-.03.21-.07.31-.1.11-.04.22-.08.34-.12.11-.04.22-.08.33-.13.09-.04.19-.07.28-.11s.18-.08.27-.12c.09-.04.18-.08.27-.12.2-.09.39-.19.58-.28.08-.04.17-.09.25-.13.07-.04.15-.08.23-.12.08-.05.16-.09.25-.14.3-.17.58-.35.86-.54.11-.07.21-.14.31-.22.13-.09.25-.18.38-.28h0l.02-.02s.08-.06.13-.09c.08-.06.16-.13.24-.19.54-.44,1.06-.92,1.54-1.42,1.24-1.32,2.26-2.85,2.98-4.54.81-1.88,1.26-3.96,1.26-6.14-.02-.73-.06-1.41-.15-2.07Z"/>
        </g>
        <g>
          <path class="cls-1" d="M82.11,17.6h.01s-16.5,14.95-16.5,14.95l-8.73,8.09-1.53,1.42-1.09,1.01-5.95,5.51-1.38,1.28c-.13.12-.34.04-.37-.13-.09-.67-.13-1.35-.13-2.04v-.17c0-.12,0-.25,0-.37v-.02c0-.12,0-.24.02-.36,0-.12.02-.25.03-.37s.02-.25.03-.37c0-.11.02-.23.04-.34,0-.02,0-.03,0-.05,0-.11.03-.22.05-.34.02-.11.03-.21.05-.31,0-.03,0-.07.02-.1.02-.1.04-.2.06-.31s.05-.22.07-.33c0-.02,0-.04,0-.06.02-.1.05-.21.07-.31.02-.1.05-.19.07-.29.02-.06.03-.12.05-.18l.06-.21c.15-.48.32-.96.51-1.42.03-.09.07-.17.11-.26h0c.05-.12.09-.22.14-.33.25-.54.53-1.06.83-1.57.06-.1.12-.19.18-.29.06-.1.13-.2.19-.29.13-.19.26-.39.4-.57.14-.19.28-.37.43-.55.22-.27.44-.53.68-.79h0s1.75-1.63,1.75-1.63l5.67-5.18,19.16-17.49h0l.27-.25h.01c.59-.46,1.34-.75,2.15-.75,1.9,0,3.44,1.54,3.44,3.43.03.9-.33,1.73-.91,2.34Z"/>
          <path class="cls-1" d="M61.37,56.38s-.04,0-.06,0c-1.47-.12-2.83-.61-4-1.37-1.68-1.09-2.96-2.73-3.58-4.65-.14-.43-.24-.86-.32-1.32-.09-.53-.12-1.08-.1-1.64.05-1.52.49-2.95,1.23-4.17.25-.41.53-.8.84-1.17.45-.53.96-1,1.52-1.41,0,0,0,0,.02,0l8.42-7.8c.13-.12.07-.34-.1-.37-1.04-.22-2.11-.33-3.22-.33-1.74,0-3.41.28-4.97.81-1.72.58-3.3,1.45-4.69,2.55-.63.5-1.22,1.04-1.76,1.63-.24.26-.47.52-.69.79-.15.18-.29.37-.43.55-.14.19-.27.38-.4.57-.06.1-.13.2-.19.29-.06.09-.12.19-.18.29-.31.5-.58,1.03-.83,1.57-.05.11-.1.21-.14.32h0c-.04.09-.07.18-.11.27-.19.46-.36.94-.51,1.42l-.06.21c-.02.06-.03.12-.05.18-.03.09-.05.19-.07.29-.03.1-.05.21-.07.31,0,.02,0,.04,0,.06-.02.11-.05.22-.07.33-.02.1-.04.2-.06.31,0,.03,0,.07-.02.1-.02.1-.03.21-.05.31-.02.11-.03.22-.05.34,0,.02,0,.03,0,.05-.02.12-.03.23-.04.34,0,.12-.02.25-.03.37s-.02.25-.03.37,0,.24-.02.36v.02c0,.12,0,.25,0,.37v.17c0,.83.07,1.65.19,2.45.29,1.83.9,3.56,1.78,5.13.1.18.21.37.32.55,1.64,2.68,4.08,4.82,6.97,6.11.24.1.48.21.72.3.08.03.17,0,.23-.04l5.28-4.89.56-.52c.15-.14.04-.39-.16-.38-.35.02-.67,0-.99-.01Z"/>
        </g>
        <path class="cls-1" d="M82.94,47.18h0l-18.49,17.14-6.78,6.28h0c-.79.91-1.67,1.73-2.63,2.45-2.93,2.2-6.57,3.51-10.51,3.51-4.66,0-8.9-1.82-12.04-4.8-.55-.53-1.07-1.09-1.55-1.68,0,0,0-.01-.01-.01l-6.08-6.56-4.62-4.99-15.68-16.91L.06,36.77c-.08-.08-.08-.22,0-.3,1.54-1.63,3.38-2.97,5.43-3.95,2.4-1.15,5.08-1.79,7.91-1.79,4.5,0,8.61,1.61,11.81,4.3.95.8,1.82,1.69,2.6,2.67h.01c.25.26.47.55.64.86.25.48.39,1.02.39,1.6,0,1.9-1.54,3.44-3.43,3.44-.91,0-1.74-.35-2.35-.93-.29-.27-.53-.59-.71-.94-.01,0-.02-.03-.03-.04-2.13-2.56-5.34-4.18-8.93-4.18-.89,0-1.75.1-2.58.29-.17.04-.23.24-.12.36l13.68,14.76,2.88,3.11,8.28,8.94,2.37,2.56s.02.02.03.03c1.82,1.4,4.09,2.24,6.57,2.24,1.62,0,3.15-.36,4.53-1,.39-.18.76-.38,1.12-.6,0-.01.02-.02.04-.03l3-2.78,3.37-3.12,5.38-4.98,1.02-.95,15.13-14.01s.09-.08.14-.13l.06-.06c.73-.63,1.73-.96,2.81-.79,1.49.24,2.66,1.46,2.84,2.96.12,1.13-.29,2.16-1.01,2.87Z"/>
        <path class="cls-1" d="M76.36,5.78h.01s-21.15,19.6-21.15,19.6l-8.73,8.09-1.52,1.41-.02.02c-.43.51-.8,1.07-1.11,1.66h-.07c.02-.21.04-.42.05-.63.5-5.77,1.95-11.19,6.3-15.22,2.91-2.69,5.82-5.38,8.72-8.08,4.21-3.87,8.39-7.75,12.59-11.63l.27-.25h.01c.58-.47,1.33-.75,2.14-.75,1.9,0,3.44,1.54,3.44,3.43,0,.92-.36,1.74-.93,2.35Z"/>
        <path class="cls-1" d="M87.04,28.84h0l-17.74,16.45s-.03.03-.05.04c-1.08.54-2.2.98-3.35,1.34-3,.93-6.21,1.3-9.52,1.4-.07,0-.13,0-.2,0-.09,0-.17,0-.26,0,.29-.17.58-.35.85-.55l.02-.02.26-.25,1.11-1.03,3.87-3.58,4.93-4.57,15.19-14.07c.74-.76,1.82-1.18,3-1,1.5.23,2.68,1.45,2.87,2.95.15,1.12-.26,2.16-.98,2.87Z"/>
        <path class="cls-1" d="M82.11,17.6h.01s-16.5,14.95-16.5,14.95l-8.73,8.09-1.52,1.41-.02.02c-.3.35-.57.73-.81,1.13,0,.02-.02.03-.04.05-.23.2-.36.32-.36.32.04-.16.08-.32.13-.5.97-3.81,1.81-7.87,3.67-11.43,2.15-4.12,5.86-6.6,9.21-9.66,3.08-2.81,6.16-5.62,9.24-8.44.26-.24.52-.48.79-.72l.27-.25h.01c.59-.46,1.34-.75,2.15-.75,1.9,0,3.44,1.54,3.44,3.43,0,.91-.36,1.74-.94,2.35Z"/>
        <path class="cls-1" d="M28.85,40.17c0,1.9-1.54,3.44-3.43,3.44-.91,0-1.74-.35-2.35-.93-.29-.27-.53-.59-.71-.94-.01,0-.02-.03-.03-.04-2.13-2.56-5.34-4.18-8.93-4.18-.41,0-.81.02-1.21.06-.25.03-.34-.32-.11-.42,4.36-1.9,8.16-2.91,13.07-2.13.04,0,.08.02.11.05.93.79,1.79,1.67,2.55,2.63h.01c.25.26.47.55.64.86.25.48.39,1.02.39,1.6Z"/>
        <path class="cls-1" d="M82.94,47.18h0l-18.46,17.12s-.04.03-.07.04c-5.25,2.01-11.02,3.69-14.12,4.27-.24.04-.36-.27-.15-.4,0,0,0,0,0-.01,0-.01.02-.02.04-.03l3-2.78,3.37-3.12,5.38-4.98,1.02-.95,15.13-14.01s.09-.08.14-.13l.06-.06c.73-.63,1.73-.96,2.81-.79,1.49.24,2.66,1.46,2.84,2.96.13,1.13-.28,2.16-1,2.87Z"/>
      </g>
      <g>
        <g>
          <path class="cls-1" d="M108.78,26.56c-.67.64-1.41,1.1-2.21,1.39-.8.29-1.64.44-2.54.44s-1.69-.12-2.42-.37c-.73-.25-1.36-.61-1.89-1.07-.53-.47-.94-1.02-1.23-1.67s-.44-1.38-.44-2.19v-10.27h2.3v9.98c0,.52.09,1,.27,1.43s.43.79.76,1.09.72.53,1.19.69.98.24,1.54.24,1.11-.09,1.63-.26c.53-.17,1.04-.42,1.54-.75,1-.64,1.49-1.44,1.49-2.41v-10.01h2.3v15.31h-2.3v-1.57h.01Z"/>
          <path class="cls-1" d="M105.52,7.46h2.28v1.53h8.06v1.91h-10.34s0-3.44,0-3.44Z"/>
          <path class="cls-1" d="M124.08,18.02c0-.54-.1-1.01-.31-1.42s-.5-.76-.87-1.04-.82-.5-1.34-.65-1.08-.22-1.69-.22c-1.84,0-3.25.59-4.22,1.76v11.68h-2.3v-12.24c1.53-2.23,3.71-3.35,6.52-3.35,1.86,0,3.37.44,4.54,1.31,1.31.96,1.96,2.25,1.96,3.87v10.41h-2.3v-10.11h.01Z"/>
          <path class="cls-1" d="M138.85,26.86c-1.1,1.02-2.5,1.53-4.2,1.53-1.81,0-3.33-.6-4.56-1.79-1.2-1.2-1.79-2.7-1.79-4.52,0-2.42,1.12-4.33,3.36-5.74l-1.91-2.56,1.87-1.18,2.95,3.74c-2.65,1.98-3.98,3.89-3.98,5.74,0,.6.1,1.16.3,1.67.2.52.48.97.83,1.35.36.38.78.68,1.28.89s1.05.32,1.64.32c.52,0,1.01-.08,1.45-.25s.82-.4,1.14-.7c.32-.3.56-.65.74-1.06.17-.41.26-.84.26-1.32v-10.16h2.3v10.15c0,1.57-.56,2.86-1.68,3.89Z"/>
          <path class="cls-1" d="M138.25,6.69h2.3v4.21h-2.3v-4.21Z"/>
          <path class="cls-1" d="M149.07,18.67c0-1.21-.31-2.17-.94-2.9-.63-.72-1.55-1.08-2.76-1.08s-2.37.35-3.49,1.06v-2.41c.96-.54,2.16-.8,3.61-.8,1.94,0,3.43.55,4.47,1.66.95.93,1.42,2.22,1.42,3.85v10.07h-2.3v-9.45h0Z"/>
          <path class="cls-1" d="M166.47,20.46c0,1.13-.14,2.16-.43,3.08s-.73,1.74-1.34,2.47c-1.25,1.58-2.96,2.37-5.13,2.37-1.46,0-2.77-.43-3.94-1.29-1.27-.91-2.11-2.15-2.52-3.72h2.34c.8,1.92,2.17,2.88,4.13,2.88,1.48,0,2.64-.6,3.48-1.81.36-.54.64-1.14.83-1.8.19-.67.29-1.39.29-2.18,0-1.55-.37-2.87-1.12-3.98-.85-1.2-2.01-1.79-3.48-1.79-1.98,0-3.33.96-4.06,2.88h-2.41c.41-1.57,1.25-2.81,2.52-3.72,1.17-.87,2.49-1.31,3.94-1.31,2.17,0,3.88.79,5.13,2.37,1.18,1.44,1.77,3.29,1.77,5.55Z"/>
          <path class="cls-1" d="M180.88,28.13l-3.98-11.55-3.98,11.55h-1.79l-4.09-15.31h2.34l2.88,10.71,3.66-10.71h2.04l3.66,10.71,2.88-10.71h2.34l-4.09,15.31s-1.87,0-1.87,0Z"/>
          <path class="cls-1" d="M199.02,21.96c-.19-.35-.44-.68-.76-.98-.32-.3-.68-.56-1.09-.78-.41-.21-.86-.38-1.36-.5-.49-.12-1.01-.19-1.54-.19-.7,0-1.33.1-1.89.3-.56.2-1.04.47-1.44.81-.4.34-.71.75-.92,1.22-.22.47-.33.98-.33,1.53,0,.39.07.75.21,1.08.14.34.32.63.56.89.24.26.52.46.84.61.32.15.68.22,1.07.22.8,0,1.56-.23,2.3-.69l1.35,1.64c-.96.78-2.17,1.18-3.64,1.18s-2.64-.49-3.61-1.46c-.91-.95-1.36-2.11-1.36-3.48,0-1.62.61-3.02,1.83-4.21,1.27-1.2,2.95-1.79,5.05-1.79,1.96,0,3.54.54,4.75,1.61v-2.26c-.11-.27-.3-.54-.56-.79-.26-.25-.57-.47-.92-.65-.35-.19-.74-.33-1.17-.44-.42-.11-.85-.16-1.29-.16-2.22,0-3.73.78-4.54,2.34h-2.45c.24-.72.57-1.36,1.01-1.92.44-.55.96-1.02,1.56-1.4s1.28-.67,2.02-.87,1.53-.3,2.36-.3c1.64,0,3.05.4,4.22,1.2,1.07.7,1.76,1.55,2.06,2.56v11.83h-2.3v-6.15h-.02Z"/>
          <path class="cls-1" d="M204.01,12.82h2.3v15.31h-2.3v-15.31Z"/>
          <path class="cls-1" d="M221.57,25.27c-.29.65-.7,1.21-1.22,1.67-.52.47-1.15.83-1.89,1.07-.74.25-1.55.37-2.43.37s-1.74-.15-2.54-.44-1.53-.76-2.2-1.39v1.57h-2.3v-15.3h2.3v10.02c0,.97.5,1.78,1.49,2.41.5.32,1.01.57,1.54.75.53.17,1.07.26,1.64.26s1.07-.08,1.54-.24c.47-.16.86-.39,1.19-.69.32-.3.58-.66.76-1.09s.27-.91.27-1.43v-9.98h2.3v10.26c-.01.8-.16,1.53-.45,2.18Z"/>
          <path class="cls-1" d="M210.14,8.99h6.5v-1.91h1.91v1.91h1.16v-1.91h2.3v3.81h-11.87v-1.9h0Z"/>
          <path class="cls-1" d="M239.26,20.46c0,2.32-.71,4.22-2.13,5.72-1.42,1.47-3.3,2.21-5.64,2.21s-4.21-.73-5.63-2.21c-1.42-1.49-2.13-3.4-2.13-5.72,0-.36,0-.69.03-.98.02-.29.06-.56.12-.81h6v2.15h-3.85c.04.8.2,1.53.49,2.2.29.67.67,1.24,1.15,1.72s1.04.85,1.69,1.12c.65.27,1.36.4,2.13.4s1.53-.14,2.2-.43,1.25-.68,1.74-1.2c.49-.51.86-1.12,1.13-1.83s.4-1.49.4-2.34-.13-1.61-.39-2.32-.63-1.32-1.11-1.83-1.06-.91-1.73-1.2-1.42-.43-2.24-.43c-2.16,0-3.76.97-4.82,2.92h-2.49c1.42-3.38,3.86-5.07,7.31-5.07,2.35,0,4.24.74,5.64,2.22,1.42,1.51,2.13,3.41,2.13,5.71Z"/>
          <path class="cls-1" d="M253.75,20.31c0,1.22-.2,2.32-.6,3.29-.4.97-.98,1.79-1.73,2.47-.75.67-1.66,1.19-2.73,1.55-1.07.36-2.28.54-3.63.54-.29,0-.57-.01-.85-.02s-.56-.03-.85-.06l-3.51-12.33,2.26-.67,3.14,11.01c.92.04,1.77-.07,2.53-.33.77-.26,1.42-.63,1.96-1.13s.96-1.11,1.26-1.84c.3-.73.45-1.55.45-2.48,0-3.75-2.06-5.63-6.17-5.63h-.51c-.17,0-.34.01-.51.04v-2.09c.22-.03.44-.04.65-.04h.64c2.74,0,4.81.7,6.21,2.09,1.32,1.33,1.99,3.21,1.99,5.63Z"/>
        </g>
        <g>
          <path class="cls-1" d="M111.39,70.04c-2.26,0-4.27-.38-6.03-1.15-1.76-.77-3.23-1.83-4.42-3.2-1.19-1.36-2.09-2.97-2.7-4.83-.6-1.86-.91-3.86-.91-6.01s.3-4.15.91-6.01,1.51-3.47,2.7-4.83c1.19-1.36,2.66-2.43,4.42-3.2,1.76-.77,3.76-1.15,6.03-1.15,1.6,0,3.06.16,4.4.48,1.33.32,2.63.81,3.87,1.48l-1.39,4.31c-2.06-1.1-4.21-1.65-6.44-1.65-2.93,0-5.14.93-6.62,2.79s-2.22,4.45-2.22,7.79.75,5.93,2.24,7.79,3.69,2.79,6.59,2.79c.87,0,1.91-.14,3.11-.44,1.2-.29,2.4-.75,3.59-1.39l1.31,4.35c-1.16.67-2.46,1.18-3.9,1.55-1.43.35-2.94.53-4.54.53Z"/>
          <path class="cls-1" d="M134.63,56.07v4.44h-12.62v-4.44h12.62Z"/>
          <path class="cls-1" d="M146.34,70.04c-1.94,0-3.69-.2-5.22-.59-1.54-.39-2.92-.94-4.14-1.63l1.44-4.61c1.04.58,2.23,1.07,3.55,1.48s2.63.61,3.94.61c1.65,0,3.05-.33,4.18-.98,1.13-.65,1.7-1.66,1.7-3.03,0-.67-.17-1.23-.5-1.7-.33-.46-.78-.87-1.35-1.22-.57-.35-1.2-.65-1.92-.89-.71-.25-1.44-.5-2.2-.76-.9-.29-1.86-.65-2.87-1.07-1.02-.42-1.95-.97-2.81-1.65s-1.57-1.53-2.13-2.55c-.57-1.02-.85-2.26-.85-3.74,0-1.1.2-2.15.59-3.13.39-.99,1.01-1.84,1.85-2.57.84-.72,1.92-1.3,3.22-1.72,1.31-.42,2.87-.63,4.7-.63,1.65,0,3.17.16,4.55.48s2.69.8,3.94,1.44l-1.44,4.35c-1.1-.49-2.25-.87-3.44-1.13-1.19-.26-2.29-.39-3.31-.39-1.74,0-3.03.3-3.87.91s-1.26,1.38-1.26,2.31c0,.67.16,1.24.48,1.72.32.48.74.89,1.26,1.24.52.35,1.12.65,1.78.91.67.26,1.35.51,2.05.74,1.04.35,2.1.75,3.18,1.2,1.07.45,2.05,1.02,2.92,1.72s1.58,1.55,2.13,2.55.83,2.23.83,3.68-.28,2.76-.85,3.83-1.34,1.97-2.31,2.7c-.97.73-2.13,1.26-3.46,1.61-1.34.34-2.79.51-4.36.51Z"/>
          <path class="cls-1" d="M167.67,69.52h-5.66v-29.33h5.66v29.33Z"/>
          <path class="cls-1" d="M184.86,69.52h-5.66v-24.55l-8.4.09v-4.88h22.46v4.88l-8.4-.09v24.55h0Z"/>
          <path class="cls-1" d="M196.39,40.19h19.06v4.79h-13.58v7.18h12.75v4.79h-12.75v7.79h13.84v4.79h-19.33v-29.34h.01Z"/>
        </g>
      </g>
    </g>
  </g>
</svg>