<?xml version="1.0" encoding="UTF-8"?>
<svg id="Layer_2" data-name="Layer 2" xmlns="http://www.w3.org/2000/svg" viewBox="0 0 251.87 314.26">
  <defs>
    <style>
      .cls-1 {
        fill: #a6a6a6;
      }

      .cls-1, .cls-2, .cls-3, .cls-4, .cls-5, .cls-6, .cls-7, .cls-8, .cls-9, .cls-10 {
        stroke-width: 0px;
      }

      .cls-2 {
        fill: #787878;
      }

      .cls-3 {
        fill: #1e1e1e;
      }

      .cls-4 {
        fill: #b9b9b9;
      }

      .cls-5 {
        fill: #f76600;
      }

      .cls-6 {
        fill: #f7b073;
      }

      .cls-7 {
        fill: #c8c8c8;
      }

      .cls-8 {
        fill: #e8e8e8;
      }

      .cls-9 {
        fill: #ab4700;
      }

      .cls-10 {
        fill: #bf4f00;
      }
    </style>
  </defs>
  <g id="Layer_1-2" data-name="Layer 1">
    <g>
      <g>
        <path class="cls-8" d="M126.66,27.74c-8.79,0-17.32,1.15-25.44,3.29-11.35,21.29-48.96,106.22,16.77,195.2,2.86.25,5.75.38,8.67.38,54.92,0,99.44-44.52,99.44-99.44S181.58,27.74,126.66,27.74Z"/>
        <path class="cls-4" d="M101.22,31.03C58.63,42.27,27.23,81.05,27.23,127.17c0,51.99,39.91,94.66,90.76,99.06C52.26,137.25,89.88,52.32,101.22,31.03Z"/>
      </g>
      <g>
        <g>
          <polygon class="cls-6" points="152.75 89.09 59.32 182.53 71.21 194.42 164.91 101.15 152.75 89.09"/>
          <polygon class="cls-9" points="115.03 150.8 150.29 115.71 138.21 103.63 103.04 138.81 115.03 150.8"/>
          <polygon class="cls-6" points="178.6 63.25 166.39 75.47 177.95 87.68 190.49 75.14 178.6 63.25"/>
          <path class="cls-1" d="M189.36,135.71c-4.5-20.32-51.44-67.03-71.33-71.33,0,0,15.79-15.79,47.38,12.07,4.2,3.71,8.18,7.69,11.89,11.89,27.86,31.58,12.07,47.38,12.07,47.38Z"/>
          <polygon class="cls-2" points="98.53 87.24 109.96 98.67 98.08 110.56 98.07 110.56 86.19 98.67 98.53 87.24"/>
          <path class="cls-7" d="M106.99,77.87l-29.72,29.72-8.73-8.73c-9.44-9.44-11.9-23.81-6.13-35.85,12.04-5.77,26.41-3.31,35.85,6.13,0,0,8.73,8.73,8.73,8.73Z"/>
          <rect class="cls-5" x="137.54" y="87.25" width="16.81" height="118.59" transform="translate(-60.88 146.12) rotate(-45)"/>
        </g>
        <path class="cls-3" d="M195.76,180.59l-52.97-52.97,22.82-23.27c18.33,20.31,21.01,31.7,21.06,31.91.24,1.25,1.41,2.2,2.69,2.19.72,0,1.42-.28,1.94-.8,10.76-12.04,3.79-33.45-10.26-49.18l11.39-11.39c1.07-1.07,1.07-2.81,0-3.88l-11.89-11.89c-1.07-1.07-2.81-1.07-3.88,0l-11.39,11.39c-15.7-14.05-37.16-21.03-49.18-10.26-1.55,1.5-.72,4.25,1.4,4.63.12.02,11.36,2.45,32.13,21.26l-23.17,22.95c-5.94-5.94-18.66-18.66-24.5-24.5l6.98-6.98c1.07-1.07,1.07-2.81,0-3.88l-8.73-8.73c-10.25-10.25-25.91-12.92-38.98-6.66-.56.27-1.02.73-1.29,1.29-6.26,13.07-3.58,28.73,6.66,38.98l8.73,8.73c1.07,1.07,2.81,1.07,3.88,0l6.98-6.98c5.81,5.82,18.7,18.7,24.61,24.61l-53.42,53.42c-1.07,1.07-1.07,2.81,0,3.88l11.89,11.89c.54.54,1.24.8,1.94.8s1.41-.27,1.94-.8l53.42-53.42,53.42,53.42c.54.54,1.24.8,1.94.8s1.41-.27,1.94-.8l11.89-11.89c1.07-1.07,1.07-2.81,0-3.88ZM178.6,67.14l8.01,8.01-9.21,9.21c-2.56-2.78-5.24-5.46-8.01-8.01l9.21-9.21ZM130.48,62.68c12.34-1.16,31.5,11.96,44.76,27.47,14.77,17.22,17.86,28.94,14.68,39.19-8.01-19.68-45.88-57.52-65.51-65.51,1.59-.57,3.61-1.04,6.07-1.14ZM153.65,92.07c2.81,2.67,5.57,5.44,8.24,8.25l-22.97,23.42-8.58-8.58,23.31-23.09ZM77.27,103.71l-6.79-6.79c-8.37-8.37-10.72-21.05-6-31.84,10.79-4.73,23.47-2.37,31.84,6l6.79,6.79c-4.99,4.99-21.13,21.13-25.84,25.84ZM98.07,90.67l8.01,8.01-8.01,8.01-8.01-8.01,8.01-8.01ZM71.21,190.54l-8.01-8.01,51.48-51.48,8.01,8.01-51.48,51.48ZM181.94,190.54c-10.9-10.9-70.55-70.55-79.98-79.98l8.01-8.01,79.98,79.98-8.01,8.01Z"/>
      </g>
      <g>
        <path class="cls-3" d="M125.93,314.26l-3.19-1.74c-19.58-10.64-49.87-33.98-76.16-67.6C25.33,217.75,0,175.05,0,125.93c0-31.53,11.75-61.71,33.09-85C54.29,17.8,83.07,3.46,114.13.56c3.96-.37,7.93-.56,11.8-.56,69.44,0,125.93,56.49,125.93,125.93,0,49.11-25.33,91.82-46.58,118.99-10.1,12.91-21.37,25.08-33.51,36.17-14.4,13.15-29.54,24.31-42.64,31.43l-3.19,1.74ZM125.93,13.38c-3.46,0-7.01.17-10.56.5C58.18,19.23,13.38,68.44,13.38,125.93c0,45.3,23.79,85.23,43.74,110.75,23.62,30.21,50.4,51.58,68.81,62.29,11.34-6.61,24.56-16.56,36.81-27.75,11.59-10.59,22.36-22.21,32-34.53,19.95-25.52,43.74-65.45,43.74-110.75,0-62.06-50.49-112.55-112.55-112.55ZM125.93,234.97c-2.25,0-4.6-.08-7-.23-57.22-3.65-102.04-51.44-102.04-108.81,0-25,8.71-49.45,24.53-68.83,15.59-19.1,37.35-32.5,61.28-37.71,7.61-1.66,15.43-2.5,23.23-2.5,60.13,0,109.04,48.92,109.04,109.04s-48.92,109.04-109.04,109.04ZM125.93,30.27c-6.85,0-13.71.74-20.39,2.19C61.93,41.97,30.28,81.28,30.28,125.93c0,50.33,39.32,92.25,89.51,95.45,2.12.14,4.19.2,6.15.2,52.75,0,95.66-42.91,95.66-95.66S178.68,30.27,125.93,30.27Z"/>
        <path class="cls-5" d="M125.93,6.69c-3.77,0-7.5.18-11.18.53-3.87,6.02-7.42,12.27-10.63,18.71,7.03-1.53,14.33-2.35,21.81-2.35,56.44,0,102.35,45.91,102.35,102.35s-45.91,102.35-102.35,102.35c-2.21,0-4.4-.08-6.58-.22,13.09,18.64,29.32,34.93,47.9,48.09,10.87-9.93,22.12-21.76,32.76-35.35,20.6-26.35,45.16-67.66,45.16-114.87,0-65.75-53.49-119.24-119.24-119.24Z"/>
        <path class="cls-10" d="M119.36,228.07c-53.38-3.4-95.77-47.91-95.77-102.13,0-48.95,34.55-89.98,80.54-100,3.21-6.45,6.76-12.69,10.63-18.71C54.23,12.87,6.69,63.95,6.69,125.93c0,47.21,24.56,88.52,45.16,114.87,25.82,33.03,55.33,55.65,74.08,65.84,11.03-5.99,25.79-16.3,41.33-30.49-18.59-13.17-34.81-29.45-47.9-48.09Z"/>
      </g>
    </g>
  </g>
</svg>