<?xml version="1.0" encoding="UTF-8"?>
<svg id="Layer_2" data-name="Layer 2" xmlns="http://www.w3.org/2000/svg" viewBox="0 0 459.45 290.94">
  <defs>
    <style>
      .cls-1 {
        fill: #333;
      }

      .cls-1, .cls-2 {
        stroke-width: 0px;
      }

      .cls-2 {
        fill: #ff6601;
      }
    </style>
  </defs>
  <g id="Layer_1-2" data-name="Layer 1">
    <g>
      <path class="cls-2" d="M86.14,241.39c-1.69-3.43-3.92-6.3-6.71-8.63-4.52-3.76-9.16-5.83-13.93-6.21l-3.95-.19.38-7.34c.25-5.27.38-8.72.38-10.35,0-1.23.25-3.39.75-6.45l-3.71-3.44-1.78-1.65.6-2.35,2.46-9.52,1.8-7,1.97,2.03c-.11-1.78-.28-3.21-.5-4.27-.44-2.07-1.54-4.55-3.29-7.43-.03-.04-.05-.08-.08-.12-2.49-3.95-5.25-6.99-8.29-9.1-3.08-2.13-7.25-3.7-12.52-4.71-2.43-.45-4.56-.73-6.41-.86-.73-.05-1.42-.08-2.06-.08-9.66,0-17.29,3.39-22.87,10.16-5.59,6.78-8.38,15.62-8.38,26.54,0,9.03,3.7,15.24,11.1,18.63,2.51,1.26,5.14,1.88,7.9,1.88,3.39,0,6.9-1.06,10.54-3.2,5.77-3.39,8.85-7.9,9.22-13.55v-1.69c0-5.9-2.07-11.35-6.21-16.37-1.26-1.63-1.88-2.57-1.88-2.82,0-.38.38-.56,1.13-.56.12,0,1.32.13,3.58.38,4.26.63,7.15,2.14,8.66,4.52,1.38,1.88,2.07,5.33,2.07,10.35,0,3.64-.38,7.59-1.13,11.86-1.51,7.9-2.26,17.31-2.26,28.23,0,.88.03,2.29.09,4.23.06,1.95.09,3.48.09,4.61.12,7.53.31,12.39.56,14.59s1,4.49,2.26,6.87c1.13,2.26,3.11,4.55,5.93,6.87.99.81,1.98,1.54,2.99,2.19l.33-.32h8.92l1.32-4.75.86-3.11,3.23.14,12.63.55,4.11-3.72-2.31-10.11-.66-2.88,2.54-1.51.51-.31.02-.03ZM22.22,197c-1.51.75-2.95,1.13-4.33,1.13-3.64,0-5.77-2.19-6.4-6.59v-1.13c0-2.01.66-3.67,1.98-4.99s2.98-1.98,4.99-1.98c1.25,0,2.45.25,3.58.75,3.01,1.26,4.52,3.51,4.52,6.78,0,2.89-1.44,4.89-4.33,6.02h-.01ZM69.27,254.59c-.25.13-.69.19-1.32.19-2.01,0-3.98-.72-5.93-2.16s-2.92-3.04-2.92-4.8c0-2.01.85-3.73,2.54-5.18,1.69-1.44,3.54-2.16,5.55-2.16,1.38,0,2.57.31,3.58.94,2.26,1.51,3.39,3.64,3.39,6.4,0,3.76-1.63,6.02-4.89,6.78h0Z"/>
      <path class="cls-2" d="M189.79,235.66c.47-.9.34-1.98.2-2.98-.65-4.66-1.34-9.25-2.16-13.85-.65-.46-1.15-.83-1.5-1.09-.02,0-.04-.03-.05-.04l-1.69-1.32c-1.63-1.27-2.05-3.55-.98-5.32l1.95-3.2c-1.04-4.13-2.54-9.16-4.5-15.1-2.51-7.59-4.52-12.95-6.02-16.09-2.13-4.52-5.99-8.62-11.57-12.33-5.58-3.7-11.39-6.12-17.41-7.25-9.1-2.13-15.64-3.25-19.62-3.38l-6.6,7.66h-11.7l-2.92-2.99c-1.99.9-3.76,1.91-5.28,3.04-1.76,1.26-3.92,3.45-6.49,6.59s-4.36,5.71-5.36,7.72c-2.38,5.02-3.58,11.23-3.58,18.63,0,2.38.19,4.64.56,6.78,1.88,8.78,4.89,14.43,9.03,16.94,1.38.88,4.2,1.32,8.47,1.32h6.21v2.45c0,1.57.09,4.01.28,7.28l.63-1.65,1.36-3.56,3.64,1.13,13.51,4.2c-.09-2.7-.23-5.72-.41-9.09-.25-8.4-.75-13.36-1.51-14.87-1.88-3.89-5.71-5.83-11.48-5.83-2.01,0-4.33.19-6.96.56l-3.39.38-.57-2.07c-.25-1-.38-2.38-.38-4.14,0-3.39.31-6.21.94-8.47.25-1.25,1.32-3.07,3.2-5.46,1.88-2.38,3.45-3.89,4.7-4.52,2.63-1.51,6.59-2.45,11.86-2.82.25,0,.63-.03,1.13-.09s.88-.09,1.13-.09c2.13,0,6.46.75,12.99,2.26,7.65,1.76,13.11,4.27,16.37,7.53,1.25,1.26,2.16,2.48,2.73,3.67.56,1.19,1.79,4.42,3.67,9.69,2.13,6.15,3.83,12.04,5.08,17.69.88,4.39,1.57,7.47,2.07,9.22.25.75.53,2.32.85,4.7.49,3.76,1.45,7.2,1.78,11.04.05.52.09,1.05.31,1.52.47,1.03,1.68,1.57,2.82,1.59h.07c1.11,0,2.19-.4,3.23-.79,2.81-1.06,5.62-2.12,8.43-3.17,1.13-.43,2.36-.93,2.91-2.01l.02-.02Z"/>
      <path class="cls-2" d="M264.89,235.95c0-4.59.71-8.91,2.12-12.85.01-.03.03-.07.04-.1.57-1.48,1.52-3.08,2.85-4.83-1.43-4.15-3.87-8.26-7.34-12.33-2.63-3.13-4.55-5.18-5.74-6.12s-3.48-2.41-6.87-4.42c-1.32-.77-2.5-1.43-3.57-2-.28.04-.52.04-.76.04-1.39,0-2.32-.48-4.97-2.52-1.8-.42-4.59-.68-8.39-.78-6.02-.25-9.29-.38-9.79-.38-2.89,0-6.46.69-10.73,2.07-3.26,1.13-6.4,2.51-9.41,4.14-4.69,2.71-8.82,6.95-12.42,12.69-.06.1-.13.2-.19.3l-1.33,2.19-1.3,2.14,1.69,1.32c.1.08.23.17.36.27.55.4,1.35.98,2.4,1.73,1.16.82,2.61,1.85,4.38,3.09,3.51,2.26,5.39,3.58,5.65,3.95.11.14.24.21.4.21.56,0,1.44-.88,2.61-2.65,2.26-3.76,4.08-6.24,5.46-7.43,1.38-1.19,3.7-2.35,6.96-3.48,2.63-.88,4.83-1.32,6.59-1.32,1.88,0,3.51.06,4.89.19l7.53.19,4.33,2.45c2.26,1.26,4.55,3.04,6.87,5.36,2.32,2.32,3.86,4.49,4.61,6.49.5,1.63.75,4.77.75,9.41,0,5.9-.38,10.35-1.13,13.36l-.56.75c-.13,0-.69-.88-1.69-2.63-2.13-3.89-4.89-7.34-8.28-10.35-3.39-3.01-6.71-4.96-9.97-5.83-1.51-.5-3.51-.75-6.02-.75-8.28,0-15.94,2.32-22.96,6.96-4.14,2.76-7.78,6.96-10.92,12.61-3.51,6.4-5.27,12.36-5.27,17.88,0,2.95.21,5.65.62,8.09l3.83.66,1.6.28.97,1.31,9.48,12.79,2.11,2.84h1.9c5.52-.38,10.23-3.58,14.12-9.6,2.38-3.76,3.58-7.4,3.58-10.92v-2.26c-.38-5.9-2.82-11.1-7.34-15.62l-3.01-3.01,1.69-.94c3.26-1.38,6.21-2.07,8.85-2.07,1.51,0,3.23.97,5.17,2.92s3.36,4.11,4.23,6.49c.5,1.13.75,2.82.75,5.08,0,.38-.03,1.1-.09,2.16-.06,1.07-.09,2.04-.09,2.92v3.95c0,2.76.19,4.89.56,6.4.88,2.89,2.48,5.21,4.8,6.96,2.32,1.76,5.05,2.63,8.19,2.63,4.52,0,8.09-1.94,10.73-5.83,4.01-5.39,7.25-12.61,9.69-21.64.68-2.52,1.26-5.02,1.75-7.49-1.22-1.31-2.18-2.67-2.86-4.09-1.42-2.85-2.1-6.45-2.1-11v-.03ZM208.63,273.59c-1.32,1.26-2.86,1.88-4.61,1.88-2.76,0-4.58-1.38-5.46-4.14-.13-.38-.19-.94-.19-1.69,0-1.63.63-3.07,1.88-4.33,1.25-1.25,2.76-1.88,4.52-1.88,1.51,0,2.85.5,4.05,1.51,1.19,1.01,1.79,2.26,1.79,3.76,0,2.01-.66,3.64-1.98,4.89h0Z"/>
      <path class="cls-2" d="M232.43,172.53l-.19,2.07c-.38,2.26-.56,3.64-.56,4.14.13.5,1.19,1.51,3.2,3.01,2.38,1.38,4.64,2.95,6.78,4.71.29.23.57.45.83.65,1.86,1.45,2.9,2.17,3.12,2.17s.61-.13,1.13-.37c2.91-1.34,10.43-6.48,22.59-15.44.25-.12,1.29-.88,3.11-2.26,1.82-1.38,3.11-2.32,3.86-2.82l3.2-2.45-1.69-3.01c-1.13-1.88-2.38-4.64-3.76-8.28-1.38-3.39-2.32-5.2-2.82-5.46l-.38-.19c-.25,0-3.01,1.95-8.28,5.83-3.13,2.26-4.83,3.39-5.08,3.39-.12,0-.31-1.06-.56-3.2-.8-7.83-3.84-13.59-9.08-17.3-.47-.33-.95-.65-1.46-.95-3.64-2.26-8.15-3.39-13.55-3.39-1.88,0-3.26.13-4.14.38-.33.07-.64.16-.96.25-3.69,1-6.7,3.07-9.01,6.25-2.51,3.45-3.76,7.56-3.76,12.33,0,5.77,1.82,10.48,5.46,14.11,2.26,2.63,6.28,4.58,12.04,5.83h-.04ZM239.77,157.47c-1.38,1.26-2.89,1.88-4.52,1.88-2,0-3.64-1-4.89-3.01-.5-.88-.75-1.82-.75-2.82,0-1.76.66-3.26,1.98-4.52,1.32-1.25,2.86-1.88,4.61-1.88,1.13,0,2.14.25,3.01.75,1.76.75,2.64,2.45,2.64,5.08,0,1.76-.69,3.26-2.07,4.52h0Z"/>
      <path class="cls-2" d="M360.04,235.01c-2.76-3.13-5.65-5.46-8.66-6.96l-3.01-1.51-.19-9.6c0-8.78-.88-15.62-2.64-20.51-2.1-5.94-5.9-11.28-11.35-16.04-.43.03-.86.06-1.26.06-1.09,0-2.58-.14-4.53-.42-.04,0-.09,0-.13-.02-4.88-.86-8.49-2.11-11.05-3.82-1.53-1.02-3.11-2.5-4.77-4.47-1.59-.15-3.54-.26-5.87-.32h-4.52c-2.38,0-4.58.31-6.59.94-5.4,1.63-8.91,3.45-10.54,5.46l2.26,3.58c2.38,3.64,4.01,6.4,4.89,8.28l2.45,4.89,1.51-1.51c2.63-2.01,6.02-3.01,10.16-3.01,2.38,0,4.58.38,6.59,1.13,1.51.63,3.26,1.13,5.27,1.51,1.75.25,3.67,1.51,5.74,3.76,2.07,2.26,3.48,4.64,4.23,7.15,1,3.01,1.51,7.78,1.51,14.3,0,2.01-.06,3.33-.19,3.95l-.38,2.45-2.64.75c-4.14.88-7.78,2.57-10.92,5.08l-2.45,1.69c-.25,0-.38-.69-.38-2.07,0-4.26-1.01-8.15-3.01-11.67-1.63-3.01-4.05-5.43-7.25-7.25s-6.49-2.73-9.88-2.73c-2.13,0-4.14.38-6.02,1.13-2.63,1.01-5.68,3.23-9.13,6.68-1.11,1.11-2.07,2.15-2.92,3.14-.6.7-1.13,1.36-1.59,2-.69.95-1.25,1.84-1.64,2.65-.13.27-.25.53-.35.78-1.26,3.51-1.88,7.34-1.88,11.48,0,3.89.56,6.96,1.69,9.22.05.1.12.21.17.31.42.81.98,1.62,1.67,2.41.51.59,1.1,1.17,1.77,1.75,1.22,1.07,2.67,2.11,4.39,3.15,4.08,2.45,7.68,3.67,10.82,3.67h1.88l-.19,3.76c0,.38-.03.94-.09,1.69s-.09,1.32-.09,1.69.03.91.09,1.6.09,1.16.09,1.41l.38,2.63,3.39.75c1.13.25,4.08,1.26,8.85,3.01l5.65,2.07c1.13-1.38,2.13-3.26,3.01-5.65.25-.75,1.88-4.39,4.89-10.92l.38-.56c.12-.5.38-1.13.75-1.88.38-.75.82-1.57,1.32-2.45,3.01-5.14,4.95-7.72,5.83-7.72.25,0,.38,3.01.38,9.03s.44,10.1,1.32,12.61c1.63,4.39,3.89,7.84,6.78,10.35,3.01,2.26,6.27,3.39,9.79,3.39,4.89,0,9.57-1.85,14.02-5.55,4.45-3.7,7.43-8.37,8.94-14.02.38-1.76.56-3.95.56-6.59,0-4.64-.44-8.09-1.32-10.35-1.26-3.39-3.26-6.65-6.02-9.79l.03.05ZM295.77,238.11c-1.69,1.69-3.67,2.54-5.93,2.54h-.38c-1.63,0-3.04-.66-4.23-1.98-1.19-1.32-1.79-2.92-1.79-4.8,0-1.25.5-2.85,1.51-4.8,1-1.94,1.94-3.23,2.82-3.86,1.63-1,3.01-1.51,4.14-1.51,1.88,0,3.42.85,4.61,2.54,1.19,1.69,1.79,3.67,1.79,5.93s-.85,4.23-2.54,5.93h0ZM346.11,263.99c-5.02,0-7.72-2.51-8.09-7.53v-1.51c0-2.63.59-4.89,1.79-6.78,1.19-1.88,2.92-2.82,5.18-2.82,1.25,0,2.38.25,3.39.75,3.14,1.63,4.71,4.7,4.71,9.22,0,5.77-2.32,8.66-6.96,8.66h-.02Z"/>
      <path class="cls-2" d="M314.57,167.87c.73.94,1.44,1.77,2.12,2.49.98,1.04,1.91,1.86,2.79,2.45.55.36,1.17.7,1.87,1.02,1.67.77,3.78,1.41,6.32,1.92.43.09.86.17,1.31.25,1.48.21,2.62.33,3.48.36.16,0,.33,0,.47,0,.76,0,1.62-.08,2.56-.23,4.17-.68,10.09-2.86,17.76-6.54,2.38-1.13,4.08-2.1,5.08-2.92,1.01-.81,2.7-2.41,5.08-4.8,3.64-3.64,5.46-5.77,5.46-6.4,0-.88-1.57-3.13-4.71-6.78-2.51-3.01-4.45-5.2-5.83-6.59-.5-.25-.88-.38-1.13-.38-1,0-2.38,1.07-4.14,3.2-1.75,2.01-2.7,3.01-2.82,3.01s-.44-.75-.94-2.26c-.76-3.4-2.15-6.17-4.12-8.36-.94-1.05-2-1.97-3.22-2.74-4.77-3.01-9.35-4.52-13.74-4.52-4.77,0-9,1.54-12.7,4.61-2.77,2.3-4.89,5.15-6.36,8.54-.49,1.14-.92,2.34-1.26,3.6-.5,1.51-.75,3.08-.75,4.71,0,3.51,1.76,7.97,5.27,13.36.74,1.09,1.45,2.07,2.15,2.97v.02ZM324.28,148.91c1.35-1.25,2.65-1.87,3.92-1.87.39,0,.78.06,1.16.18.25.13.75.19,1.51.19.63,0,1.44.54,2.45,1.6,1.01,1.07,1.63,2.1,1.88,3.11.13.38.19,1.01.19,1.88,0,3.01-1.63,5.02-4.89,6.02-1,.25-1.69.38-2.07.38-1.38,0-2.7-.63-3.95-1.88-1.38-1.38-2.07-3.07-2.07-5.08,0-1.88.63-3.39,1.88-4.52h-.01Z"/>
      <path class="cls-2" d="M455.84,229.71c-1.76-3.01-3.45-5.39-5.08-7.15-1.63-1.76-4.27-3.89-7.9-6.4-.5-.38-.75-1.44-.75-3.2,0-5.27,2.19-23.14,3.7-28.16.75-3.39.94-5.2.56-5.46-.5-.25-5.77-.5-15.81-.75h-2.82l-.56,2.26c-1.26,4.27-3.51,22.39-3.89,28.92-.25,2.89-.69,4.45-1.32,4.7-5.02,1.76-9.22,4.02-12.61,6.78-.75.63-1.48,1.19-2.16,1.69-.69.5-1.19.82-1.51.94-.16.06-.29.09-.4.09s-.2-.03-.26-.09l-.75-10.16c-.5-9.66-1.95-16.56-4.33-20.7-3.39-5.39-7.47-8.59-12.23-9.6-1.26-.38-3.26-.56-6.02-.56-3.01,0-5.65.25-7.9.75-4.14,1.13-7.37,2.86-9.69,5.18-2.32,2.32-4.11,5.8-5.36,10.45-.75,2.76-1.13,5.27-1.13,7.53,0,3.01.63,5.77,1.88,8.28,4.52,8.53,11.29,12.8,20.33,12.8h2.26l4.14-.19.38,3.39c1.63,18.82,3.2,29.3,4.7,31.43,1.76,2.76,4.33,4.14,7.72,4.14,2.13,0,4.01-.5,5.65-1.51,2.26-1.25,4.01-2.98,5.27-5.18,1.25-2.19,2.51-5.61,3.76-10.26,1.75-6.27,3.45-10.16,5.08-11.67l.38-.38c.25,0,.5,1.26.75,3.76v.56c.5,7.4,1.94,13.3,4.33,17.69,3.01,6.15,7.97,9.22,14.87,9.22,1.13,0,2.01-.06,2.64-.19,5.14-.75,9.38-3.36,12.7-7.81s4.99-9.69,4.99-15.71v-1.69c-.38-5.39-1.57-9.97-3.58-13.74h-.03ZM385.07,208.53c-.75,1.44-1.51,2.48-2.26,3.11-1.26.88-2.95,1.32-5.08,1.32-.13,0-.44-.03-.94-.09s-.82-.09-.94-.09c-3.27-.63-4.89-2.7-4.89-6.21,0-2.26.88-4.08,2.64-5.46,1.63-1.38,3.45-2.07,5.46-2.07,1.25,0,2.51.31,3.76.94.75.38,1.51,1.1,2.26,2.16.75,1.07,1.13,2.04,1.13,2.92s-.38,2.04-1.13,3.48h-.01ZM443.6,248.34c-1.13,1.51-2.57,2.26-4.33,2.26-1.01,0-1.95-.19-2.82-.56-2.38-1.25-3.58-3.45-3.58-6.59,0-2.76.69-4.77,2.07-6.02,1.51-1.25,2.89-1.88,4.14-1.88,1.13,0,2.32.5,3.58,1.51,1.75,1.38,2.63,3.39,2.63,6.02,0,2.01-.56,3.76-1.69,5.27h0Z"/>
      <path class="cls-1" d="M138.73,104.03s3.65,16.17,4.93,16.09c1.28-.08,16.23-2.46,18.2-3.79.37-.37,1.53-1.1,3.49-2.2,6.98-3.92,11.75-9.06,14.32-15.42.73-1.71,1.1-4.28,1.1-7.71,0-3.18-.61-6.06-1.84-8.63-1.96-3.79-4.74-6.91-8.35-9.36-3.61-2.45-7.56-3.67-11.84-3.67-2.82,0-5.81.71-9,2.11-3.18,1.41-5.69,3.03-7.53,4.86-3.55,3.55-5.32,8.14-5.32,13.77,0,2.08.3,4.96.92,8.63.37,1.84.67,3.61.92,5.32ZM163.06,86.86c1.16,1.41,1.74,3.09,1.74,5.05s-.61,3.61-1.84,4.96c-1.1,1.23-2.51,1.84-4.22,1.84s-3.24-.58-4.59-1.74c-1.35-1.16-2.02-2.6-2.02-4.31,0-2.45.61-4.37,1.84-5.78,1.22-1.41,2.81-2.11,4.77-2.11,1.71,0,3.15.71,4.31,2.11v-.02Z"/>
    </g>
    <g>
      <path class="cls-2" d="M64.05,166.43s.02.03.03.04c.05.08.09.15.13.23.18-.1.35-.18.54-.29,3.89-2.13,6.68-4.33,8.37-6.59s2.6-4.96,2.73-8.09v-1.32c0-5.52-1.95-10.92-5.83-16.19-3.89-5.14-9.22-7.72-16-7.72h-1.51l-3.76.19v-11.48c0-7.53.81-17,2.45-28.42-1.13-.12-7.4-.94-18.82-2.45,0,.25-.44,3.14-1.32,8.66-.75,4.77-1.19,12.67-1.32,23.71v4.14c0,11.87.81,21.46,2.43,28.8,2.33.07,5.05.4,8.31,1,5.8,1.11,10.54,2.91,14.07,5.36,3.51,2.44,6.71,5.94,9.5,10.4v.02ZM47.81,145.71c0-2.26.72-4.08,2.16-5.46s3.11-2.07,4.99-2.07c1.51,0,2.79.5,3.86,1.51,1.06,1.01,1.6,2.51,1.6,4.52,0,2.26-.56,4.11-1.69,5.55-1.13,1.44-2.51,2.16-4.14,2.16-1.76,0-3.39-.75-4.89-2.26-1.26-1.25-1.88-2.57-1.88-3.95h0Z"/>
      <path class="cls-2" d="M80.66,114.37c1.94,2.07,3.79,3.55,5.55,4.42,3.26,1.63,7.15,2.45,11.67,2.45h1.51c1.76-.12,2.7,0,2.82.38.12.25.31,2.82.56,7.72.24,2.71.66,5.4,1.06,8.1l13.19,9.6,4.74,2.9c1.31-.16,2.5-.25,3.55-.27-.05-.19-.1-.37-.15-.57-2.26-9.28-3.39-16-3.39-20.14,0-.75.88-1.25,2.63-1.51,1.13-.12,2.98-.5,5.55-1.13,2.57-.63,5.24-1.32,8-2.07,2.3-.63,3.85-1.03,4.67-1.22-2.13-.63-3.09-3.51-4.86-10.17-.88-3.32-1.64-6.58-1.91-7.73-.22.07-.46.13-.72.21-2.01.56-4.11,1.1-6.3,1.6-2.2.5-3.42.82-3.67.94-1.63.5-2.95.75-3.95.75-.5-.12-1.07-1.25-1.69-3.39-1.63-9.91-3.01-16.37-4.14-19.39-.63-1.76-1.91-3.67-3.86-5.74s-3.8-3.54-5.55-4.42c-2.01-1-4.33-1.51-6.96-1.51-4.64,0-9.19,1.44-13.64,4.33-4.46,2.89-7.56,6.09-9.32,9.6-1.38,3.01-2.07,6.15-2.07,9.41,0,3.89.75,7.47,2.26,10.73,1,2.01,2.48,4.05,4.42,6.12h0ZM92.79,91.32c1-.5,2.19-.75,3.58-.75,1.51,0,2.57.25,3.2.75,2.38,1.63,3.58,3.89,3.58,6.78,0,2.13-.82,3.95-2.45,5.46-1.38,1.26-2.89,1.88-4.52,1.88-1.76,0-3.33-.69-4.7-2.07-1.63-1.63-2.45-3.58-2.45-5.83,0-3.01,1.25-5.08,3.76-6.21h0Z"/>
      <path class="cls-2" d="M146.43,138.27c.75,4.21,1.44,8,2.07,11.39l.56,3.94c1.26.3,2.52.67,3.77,1.08,1.63-.22,3.56-.57,5.83-1.06l8.66-1.69v-1.32c0-6.4-1.32-14.74-3.95-25.03-.7-2.57-1.18-4.56-1.45-5.97-5.05,1.76-17.52,3.53-18.07,3.56h-.2c-.19,0-.38,0-.56-.03l1.64,6.4c.38,1.63.94,4.55,1.69,8.75v-.02Z"/>
      <path class="cls-2" d="M256.21,72.99c-2.2-.81-3.73-1.35-4.61-1.6-2.89-1.13-4.45-1.57-4.7-1.32s-.5,2.76-.75,7.53c-.25,4.27-.63,7.78-1.13,10.54-.25,1.26-.41,2.23-.47,2.92-.06.69-.13,1.32-.19,1.88s-.28,1.6-.66,3.1c-.25.75-.91,4.27-1.98,10.54-1.07,6.28-1.91,10.04-2.54,11.29-.13.13-.31.09-.56-.09-.25-.19-.66-.53-1.22-1.04-.56-.5-1.22-1.13-1.98-1.88-2.26-2.51-5.27-4.96-9.03-7.34l-5.46-3.58.38-16.56c.25-11.29.38-17.13.38-17.5v-2.54c0-.69-.03-1.32-.09-1.88s-.13-1.04-.19-1.41c-.06-.38-.13-.72-.19-1.04-.06-.31-.13-.59-.19-.85-.06-.25-.16-.44-.28-.56-.13-.12-.25-.34-.38-.66-.13-.31-.25-.59-.38-.85-1.13-2.38-2.32-4.08-3.58-5.08-3.76-3.13-8.53-4.7-14.3-4.7-1.51,0-3.01.19-4.52.56-6.4,1.63-10.79,4.83-13.17,9.6-1.63,3.51-2.45,8.66-2.45,15.43,0,3.76.5,6.71,1.51,8.85,1.13,2.38,2.88,4.77,5.27,7.15,2.38,2.38,4.58,3.95,6.59,4.7s3.58,1.13,4.71,1.13c1.38,0,2.07.38,2.07,1.13s-.75,1.19-2.26,1.32c-1.88.25-4.3.91-7.25,1.98s-5.05,2.04-6.3,2.92c-5.15,3.39-7.72,8.6-7.72,15.62,0,2.51.31,4.58.94,6.21s2.01,4.08,4.14,7.34c3.89,5.4,8.53,8.09,13.93,8.09.25,0,.63-.03,1.13-.09s.88-.09,1.13-.09c4.64-.5,8.34-1.79,11.1-3.86,2.76-2.07,4.89-5.24,6.4-9.5.88-2.26,1.44-3.39,1.69-3.39s1.82,1.57,4.71,4.71c.23.25.45.46.67.7,1.05-.41,2.14-.76,3.29-1.01,1.26-.33,2.88-.49,5.11-.49,6.12,0,11.39,1.34,15.66,3.98.84.5,1.63,1.03,2.38,1.6,1.43-1.68,2.85-3.84,4.23-6.48,2.7-5.14,4.17-9.97,4.42-14.49.25-3.89,1.13-9.03,2.63-15.43,2.01-8.4,3.07-14.49,3.2-18.26v-3.95l-4.52-1.51c-.88-.38-2.42-.97-4.61-1.79h-.01ZM203.79,124.94c-1.38,1.19-2.95,1.79-4.71,1.79-1.13,0-2.2-.31-3.2-.94-1.88-1.13-2.82-2.76-2.82-4.89,0-1.88.63-3.36,1.88-4.42s2.76-1.6,4.52-1.6,3.26.53,4.52,1.6c1.25,1.07,1.88,2.48,1.88,4.23,0,1.63-.69,3.04-2.07,4.23ZM206.05,78.36c-1.01,1.01-2.26,1.57-3.76,1.69h-.56c-1.76,0-3.23-.66-4.42-1.98s-1.79-2.85-1.79-4.61c0-1.88.75-3.39,2.26-4.52.63-.5,1.63-.75,3.01-.75,1.51,0,2.76.31,3.76.94,1.88,1.26,2.82,3.08,2.82,5.46,0,1.51-.44,2.76-1.32,3.76h0Z"/>
      <path class="cls-2" d="M273.19,40.97c8.15-7.48,13-12.95,14.53-16.41l.53-1.61-4.24-3.38c-5.76-4.54-8.89-6.9-9.36-7.05-.59-.2-2.28,1.5-5.04,5.07-1.42,1.91-3.01,3.7-4.75,5.37-1.74,1.67-2.85,2.43-3.33,2.27l-.18-.06c-.16-.32.39-1.39,1.66-3.22,3.4-4.69,5.57-8.47,6.51-11.33.31-.95.36-1.6.14-1.93-.22-.34-1.16-.98-2.83-1.93-3.78-2.57-5.88-3.99-6.32-4.27-1.91-1.42-3.16-2.23-3.76-2.43-.6-.2-1.35.08-2.26.84-1.07.84-1.78,1.59-2.14,2.27-1.06,1.63-1.76,2.63-2.07,2.98-.32.36-.57.44-.77.24-.2-.2-2.16-1.04-5.9-2.54l-2.68-.88c-7.03-2.32-13.82-2.58-20.36-.77-5.07,1.37-9.27,3.88-12.6,7.54-3.4,3.5-5.71,7.1-6.93,10.79l-.47,1.43c-1.26,4.21-1.45,7.61-.6,10.21.86,2.6,2.88,5.08,6.06,7.45,2.66,1.94,5.9,3.53,9.71,4.79,2.5.83,6.32,1.79,11.44,2.88,5.12,1.1,8.83,1.96,11.14,2.59,7.39,2.04,12.49,2.8,15.3,2.28,1.03-.32,2.58-.4,4.64-.25,3.37.19,6.52-1.54,9.45-5.21,1.58-1.99,3.4-3.9,5.46-5.73h.02ZM250.01,31.34c-1.02,3.1-3.18,4.83-6.47,5.2-1.63.13-4.76-.38-9.41-1.52-5.52-1.29-8.61-1.92-9.29-1.88-1.83-.07-3.15-.25-3.99-.52-1.31-.43-2.34-1.1-3.1-2.01-1.67-1.74-2.02-4.1-1.03-7.08.9-2.74,2.74-4.91,5.52-6.5,3.33-1.68,8.33-1.81,15-.4l4.53,1.89c3.89,1.81,6.47,3.72,7.72,5.72,1.26,2,1.43,4.37.53,7.11h0Z"/>
      <path class="cls-2" d="M349.69,66.41c-2.51-3.01-5.21-5.46-8.09-7.34-9.79-6.52-20.26-9.79-31.43-9.79-3.64,0-6.46.13-8.47.38-8.03.75-14.93,2.7-20.7,5.83-2.38,1.13-5.02,3.26-7.9,6.4-2.76,3.01-4.14,4.58-4.14,4.7,0,.25.82,1.07,2.45,2.45.63.5,2.1,1.76,4.42,3.76,2.32,2.01,4.11,3.51,5.36,4.52l2.26,1.88,1.51-2.07c1.38-2.01,2.82-3.48,4.33-4.42,1.51-.94,4.01-1.85,7.53-2.73,3.13-.88,7.59-1.32,13.36-1.32,3.39,0,6.15.19,8.28.56,3.76.75,7.5,2.32,11.2,4.7,3.7,2.39,6.18,4.77,7.43,7.15,1.13,2.01,1.69,6.15,1.69,12.42,0,.38-.03.91-.09,1.6-.07.69-.09,1.16-.09,1.41-.75,10.67-2.32,18.57-4.71,23.71-.63,1.51-1.1,2.42-1.41,2.73-.32.31-.97.54-1.98.66-2.89.38-8.6.56-17.13.56-5.15,0-8.72-.12-10.73-.38-2.13-.25-3.51-.53-4.14-.85-.63-.31-.94-.91-.94-1.79,0-.63.09-.97.28-1.04.19-.06.85-.03,1.98.09.12,0,.44.03.94.09s.94.09,1.32.09c1,0,2.26-.12,3.76-.38,10.41-1.76,15.62-7.78,15.62-18.07,0-1-.13-2.76-.38-5.27-.63-4.77-1.66-8.37-3.11-10.82-1.44-2.45-3.73-4.42-6.87-5.93-4.27-2.13-8.16-3.2-11.67-3.2-1.88,0-3.51.25-4.89.75-1.63.5-3.58,1.76-5.83,3.76-2.26,2.01-4.02,3.89-5.27,5.65-3.39,5.15-5.08,12.8-5.08,22.96v4.14c.38,9.66,1.44,16.31,3.2,19.95,1.25,2.63,2.92,4.46,4.99,5.46,2.07,1.01,5.8,1.95,11.2,2.82,1.91.33,4.31.58,7.15.76,1.72-4.58,4.41-8.43,8.04-11.45,4.43-3.68,9.58-5.55,15.3-5.55,5.15,0,10.5,1.73,15.91,5.15,1.39.88,2.63,1.91,3.74,3.08,1.43-1.99,2.72-4.39,3.88-7.24,3.89-9.66,5.84-21.14,5.84-34.44,0-6.02-.57-11.1-1.69-15.24-.88-3.01-2.95-6.65-6.21-10.92l-.02.07ZM294.36,98.59c0-3.01,1.32-5.08,3.95-6.21,1-.38,1.88-.56,2.63-.56,2.13,0,4.14.94,6.02,2.82.75,1.01,1.13,2.2,1.13,3.58,0,2.89-1.32,5.02-3.95,6.4-1.51.5-2.45.75-2.82.75-.63,0-1.69-.31-3.2-.94-2.51-1.13-3.76-3.07-3.76-5.83h0Z"/>
      <path class="cls-2" d="M438.15,92.36c-1.01-2.88-2.64-5.71-4.89-8.47-2.26-2.76-4.39-4.58-6.4-5.46-2.01-.88-4.27-1.32-6.78-1.32-1.01,0-2.01.13-3.01.38-2.51.63-5.21,1.85-8.09,3.67-2.89,1.82-5.08,3.67-6.59,5.55-3.51,4.14-5.52,9.97-6.02,17.5,0,.25-.03.66-.09,1.22-.07.56-.09.97-.09,1.22,0,8.66,4.26,15.06,12.8,19.2,1.51.75,2.48,1.29,2.92,1.6s.59.72.47,1.22c-2.14,10.04-4.39,17.44-6.78,22.21-1.38,2.89-2.38,4.33-3.01,4.33-.88,0-2.73-1.35-5.55-4.05-2.82-2.7-4.86-5.05-6.12-7.06-1.26-1.76-2.1-3.36-2.54-4.8s-1.48-5.61-3.11-12.52c-2.01-7.4-3.64-11.1-4.89-11.1h-.19c-.63.25-3.45,1.66-8.47,4.23s-7.53,3.92-7.53,4.05c0,.25.31.88.94,1.88.5.88,1.38,4.02,2.63,9.41,1.25,5.77,2.41,9.91,3.48,12.42,1.06,2.51,2.73,5.4,4.99,8.66,1.51,2.01,4.05,4.77,7.62,8.28,3.58,3.51,6.18,5.71,7.81,6.59,3.39,1.88,7.4,2.82,12.04,2.82,2.76,0,5.08-.38,6.96-1.13,4.26-1.63,8.03-5.77,11.29-12.42,3.39-6.78,5.96-14.12,7.72-22.02.25-1.13.57-2.45.94-3.95.38-1.51.72-3.01,1.04-4.52.31-1.51.53-2.51.66-3.01.5-1.63,1.22-4.52,2.16-8.66s1.85-7.34,2.73-9.6c1.25-3.26,1.88-6.4,1.88-9.41,0-2.76-.32-5.08-.94-6.96v.02ZM424.97,104.21c-1.38,4.52-3.89,6.78-7.53,6.78-1.13,0-2.2-.25-3.2-.75-2.76-1.25-4.14-3.64-4.14-7.15,0-2.13.56-4.11,1.69-5.93s2.7-3.04,4.7-3.67c1-.25,1.76-.38,2.26-.38,1.88,0,3.51.75,4.89,2.26s2.07,3.2,2.07,5.08c0,.75-.25,2.01-.75,3.76h0Z"/>
      <polygon class="cls-1" points="189.53 277.69 187.4 277.32 185.18 276.94 182.99 276.56 176.67 275.47 176.67 264.22 163.59 251.24 153.46 250.31 143.7 243.95 135.14 244.56 132.79 234.91 132.41 234.79 130.37 234.16 128.32 233.53 113.49 228.92 111.96 232.93 109.46 235.4 107.56 237.26 107.55 237.26 105.51 237.26 100.97 237.26 91.25 243.06 89.48 244.12 87.71 245.18 88.97 250.69 90.32 256.57 90.56 257.61 89.69 258.4 83.45 264.05 83.44 264.05 69.15 263.43 67.01 271.15 57.28 271.15 56.63 271.15 55.28 272.44 48.72 278.73 55.51 289.59 191.62 290.43 195.4 290.45 199.01 290.47 198.41 289.67 189.53 277.69"/>
      <polygon class="cls-1" points="140.35 209.88 138.01 226.35 148.41 226.35 152.35 218.11 148.41 213.04 140.35 209.88"/>
      <polygon class="cls-1" points="66.55 188.32 64.56 186.27 62.11 195.79 63.84 197.4 65.64 199.06 66.71 200.05 67.65 199.3 73.04 194.99 68.54 190.35 66.55 188.32"/>
      <polygon class="cls-1" points="115.12 150.63 114.69 150.36 107.1 144.84 107.02 150.44 106.97 153.3 106.96 154.35 107.77 155.18 109.34 156.79 109.85 157.32 117.98 157.32 120.69 154.18 120.77 154.08 118.23 152.53 115.65 150.95 115.12 150.63"/>
    </g>
  </g>
</svg>