<?xml version="1.0" encoding="UTF-8"?>
<svg id="Layer_2" data-name="Layer 2" xmlns="http://www.w3.org/2000/svg" viewBox="0 0 80.25 80.25">
  <defs>
    <style>
      .cls-1 {
        fill: #7c8388;
      }

      .cls-1, .cls-2, .cls-3, .cls-4, .cls-5, .cls-6 {
        stroke-width: 0px;
      }

      .cls-2 {
        fill: #f76600;
      }

      .cls-3 {
        fill: #004c4b;
      }

      .cls-4 {
        fill: #ff9b55;
      }

      .cls-5 {
        fill: #15bfbd;
      }

      .cls-6 {
        fill: #dbdbdb;
      }
    </style>
  </defs>
  <g id="Layer_1-2" data-name="Layer 1">
    <g>
      <path class="cls-2" d="M9.44,0v15.82l4.85-.13,4.59-2.82V0h-9.44Z"/>
      <path class="cls-6" d="M4.72,26.73v53.52h11.8l10.18-1.57,8.71,1.57h4.72l1.57-36.19-1.57-28.39-14.47,1.55L4.72,26.73Z"/>
      <path class="cls-1" d="M54.29,16.28l-14.17-.61v64.58h18.89l16.52-13.76V26.93l-21.24-10.65Z"/>
      <path class="cls-3" d="M35.41,80.25h-18.88v-14.16l1.57-2.36-1.57-2.36v-16.52h18.88v35.41Z"/>
      <path class="cls-5" d="M62.38,47.21h-12.65v-11.8h12.65v11.8Z"/>
      <path class="cls-5" d="M16.52,61.37h7.08v4.72h-7.08v-4.72Z"/>
      <path class="cls-3" d="M75.53,66.5c-2.12-.76-4.63-.47-6.61,1.01-.41.31-1.01.13-1.21-.35-1.45-3.46-4.9-5.87-8.91-5.78-5.05.1-9.17,4.25-9.24,9.3-.08,5.28,4.18,9.58,9.44,9.58h14.16c3.89,0,7.08-3.15,7.08-7.08,0-3.08-1.97-5.71-4.72-6.68Z"/>
      <path class="cls-4" d="M0,18.88v9.33l40.12-12.54,2.68-3.87-2.68-5.58L0,18.88Z"/>
      <path class="cls-2" d="M40.12,6.23v9.44h0s40.13,12.76,40.13,12.76v-8.77L40.12,6.23Z"/>
    </g>
  </g>
</svg>