<svg width="19" height="22" viewBox="0 0 19 22" fill="none" xmlns="http://www.w3.org/2000/svg">
<g clip-path="url(#clip0_140_3)">
<path d="M4.42281 1.99803C6.48524 0.669732 9.11018 0.203609 11.5332 0.669903C13.9562 1.13626 16.2496 2.56379 17.4755 4.68357L17.4609 4.66893C19.1051 7.49531 18.6294 11.142 17.1005 14.039C15.8889 16.3567 12.8313 20.9344 9.99019 21.4433C6.90365 22.0086 3.52895 17.0624 2.25972 14.8437C1.06271 12.7523 0.255053 10.3363 0.572223 7.94822C0.875107 5.5458 2.34589 3.32643 4.42281 1.99803ZM9.78804 5.16893C9.77063 5.1705 8.62256 5.27421 7.89644 5.53221C7.41717 5.71426 6.96255 5.89658 6.33199 6.39061C6.33187 6.38725 6.33 6.36298 6.3066 6.33885C6.10479 6.10481 5.97847 6.15721 5.97847 6.15721L5.80171 6.33885L5.57515 6.10447C5.57515 6.10447 5.52462 6.10494 5.44918 6.07908C5.34826 6.07908 5.17086 6.05245 5.01949 6.10447C4.91863 6.15648 4.84319 6.20945 4.76754 6.31346C4.47202 6.71999 4.70596 6.95251 4.71675 6.96287L4.94429 7.19725L4.76754 7.37986L4.81832 7.58787C4.82262 7.59231 4.87203 7.64325 4.94429 7.71775C3.83676 9.14512 3.7834 11.1938 3.78316 11.2031V11.5937C3.78316 11.5937 3.8592 11.4893 3.98531 11.2812C4.31329 10.735 5.04467 9.56397 5.77632 8.60154C5.97816 8.83565 6.12984 8.62791 6.12984 8.62791C6.12984 8.62791 6.18023 8.57596 6.25582 8.49803L6.3066 8.54979C6.3066 8.54979 7.56777 9.85077 8.55171 10.8652L6.66011 12.8154C6.66011 12.8154 6.2059 13.2318 6.15523 13.5439C6.15523 13.622 6.15555 13.7003 6.20601 13.7783C6.23125 13.8563 6.28173 13.9343 6.35738 13.9863C6.4582 14.0902 6.60905 14.1688 6.70992 14.1689C6.91175 14.1689 7.08865 14.1683 7.36617 13.9082C7.51779 13.7519 8.52647 12.7116 9.43453 11.7754C9.5859 11.9314 9.68762 12.0355 9.71285 12.0615C9.94035 12.2962 11.3522 14.0386 12.0586 14.1689H12.2861C12.8411 13.8308 11.9328 12.7638 10.747 11.4892C10.5957 11.3332 10.4441 11.1508 10.2675 10.9687C10.6514 10.573 10.9341 10.2814 10.9892 10.2246C11.0386 10.2567 11.2004 10.3454 11.3271 10.2148C11.5037 10.0327 11.832 9.69432 11.832 9.69432L12.0087 9.87693L12.791 10.6826C12.7982 10.6896 13.2716 11.1479 13.497 10.7353C13.7241 10.3192 14.4557 8.86218 14.5566 7.92576C14.6575 6.98935 14.7832 5.81834 14.7832 5.81834C14.7831 5.80798 14.7817 5.60821 14.708 5.53221V5.55857C14.7063 5.5571 14.5302 5.40291 14.2793 5.42869C14.027 5.4547 12.8156 5.53301 12.2353 5.66307C11.7558 5.76717 10.6963 6.10534 9.81343 6.52147C9.58637 6.62556 9.20811 6.9112 9.5107 7.19725C9.71253 7.40534 10.242 7.92612 10.5195 8.23826C10.6435 8.36611 10.7437 8.46823 10.747 8.47166L10.0156 9.22654L10.1416 9.35643L9.43453 10.0849C8.32446 8.94046 7.16402 7.76951 7.16402 7.76951H7.13961C7.145 7.76257 7.24106 7.63854 7.26558 7.61326C7.44158 7.43125 7.16402 7.22361 7.16402 7.22361C7.1636 7.22318 7.15983 7.21791 7.11421 7.17088C7.77002 6.57282 8.5269 6.02715 9.0566 5.66307C9.47743 5.3568 9.77692 5.17563 9.78804 5.16893Z" fill="#F76601"/>
</g>
<defs>
<clipPath id="clip0_140_3">
<rect width="18" height="21" fill="white" transform="translate(0.5 0.5)"/>
</clipPath>
</defs>
</svg>
